<svg width="60" height="60" viewBox="0 0 60 60" fill="none" xmlns="http://www.w3.org/2000/svg">
<g clip-path="url(#clip0_135_358)">
<path d="M1.17188 30.0003C1.17187 33.7859 1.91752 37.5345 3.36623 41.0321C4.81495 44.5296 6.93836 47.7075 9.61523 50.3843C12.2921 53.0612 15.47 55.1846 18.9675 56.6333C22.465 58.0821 26.2136 58.8277 29.9993 58.8277C33.785 58.8277 37.5336 58.0821 41.0311 56.6333C44.5286 55.1846 47.7065 53.0612 50.3834 50.3843C53.0602 47.7075 55.1837 44.5296 56.6324 41.0321C58.0811 37.5345 58.8267 33.7859 58.8267 30.0003C58.8267 26.2146 58.0811 22.466 56.6324 18.9685C55.1837 15.471 53.0602 12.2931 50.3834 9.61621C47.7065 6.93933 44.5286 4.81592 41.0311 3.36721C37.5336 1.91849 33.785 1.17285 29.9993 1.17285C26.2136 1.17285 22.465 1.91849 18.9675 3.36721C15.47 4.81592 12.2921 6.93933 9.61523 9.61621C6.93836 12.2931 4.81495 15.471 3.36623 18.9685C1.91752 22.466 1.17187 26.2146 1.17188 30.0003Z" fill="#FC4C59"/>
<path d="M36.1768 54.5715C20.256 54.5715 7.34953 41.6652 7.34953 25.7442C7.34953 17.2382 11.0343 9.59387 16.8938 4.31738C7.56094 9.08914 1.17188 18.7984 1.17188 29.9998C1.17188 45.9207 14.0782 58.8272 29.9992 58.8272C37.4141 58.8272 44.1744 56.0266 49.2823 51.4269C45.3505 53.4372 40.8961 54.5715 36.1768 54.5715Z" fill="#BC3B4A"/>
<path d="M47.0578 47.5916C46.8487 47.5918 46.6433 47.5361 46.4629 47.4302C46.2826 47.3243 46.1338 47.172 46.0322 46.9892C44.599 44.4166 41.8813 42.8182 38.94 42.8182C36.0747 42.8182 33.3288 44.4289 31.7745 47.0216C31.4413 47.5769 30.7207 47.7569 30.1656 47.4243C29.61 47.0913 29.4298 46.3711 29.7628 45.8155C31.7388 42.5199 35.2553 40.4727 38.94 40.4727C42.7317 40.4727 46.2345 42.5323 48.0812 45.8478C48.3965 46.4136 48.1934 47.1279 47.6275 47.4429C47.4534 47.5403 47.2573 47.5915 47.0578 47.5916Z" fill="#7C152E"/>
<path d="M26.7402 29.3638C26.7402 30.2122 27.0772 31.0258 27.6771 31.6256C28.277 32.2255 29.0906 32.5625 29.939 32.5625C30.7873 32.5625 31.601 32.2255 32.2008 31.6256C32.8007 31.0258 33.1377 30.2122 33.1377 29.3638C33.1377 28.5154 32.8007 27.7018 32.2008 27.1019C31.601 26.502 30.7873 26.165 29.939 26.165C29.0906 26.165 28.277 26.502 27.6771 27.1019C27.0772 27.7018 26.7402 28.5154 26.7402 29.3638Z" fill="white"/>
<path d="M43.8574 28.499C43.8574 28.9191 43.9402 29.3351 44.1009 29.7232C44.2617 30.1112 44.4973 30.4639 44.7943 30.7609C45.0913 31.0579 45.444 31.2936 45.8321 31.4543C46.2202 31.6151 46.6361 31.6978 47.0562 31.6978C47.4762 31.6978 47.8922 31.6151 48.2803 31.4543C48.6684 31.2936 49.021 31.0579 49.318 30.7609C49.6151 30.4639 49.8507 30.1112 50.0114 29.7232C50.1722 29.3351 50.2549 28.9191 50.2549 28.499C50.2549 28.079 50.1722 27.663 50.0114 27.2749C49.8507 26.8868 49.6151 26.5342 49.318 26.2372C49.021 25.9402 48.6684 25.7045 48.2803 25.5438C47.8922 25.383 47.4762 25.3003 47.0562 25.3003C46.6361 25.3003 46.2202 25.383 45.8321 25.5438C45.444 25.7045 45.0913 25.9402 44.7943 26.2372C44.4973 26.5342 44.2617 26.8868 44.1009 27.2749C43.9402 27.663 43.8574 28.079 43.8574 28.499Z" fill="white"/>
<path d="M29.9958 33.7374C29.4627 33.7374 28.9283 33.6421 28.4136 33.4503C27.2807 33.0283 26.3799 32.1903 25.8771 31.091C25.3701 29.9821 25.3607 28.6548 25.8512 27.4494C26.1146 26.8018 26.5136 26.2182 27.0213 25.7376C26.8082 25.6283 26.5954 25.5184 26.3828 25.408C25.5819 24.9922 24.9381 24.6121 24.3156 24.2447C23.5795 23.8103 22.8184 23.3611 21.7369 22.8131C21.1592 22.5205 20.9278 21.8149 21.2206 21.2371C21.5133 20.6591 22.2188 20.4279 22.7967 20.7207C23.9458 21.3026 24.7399 21.7715 25.508 22.2248C26.131 22.5926 26.7195 22.9399 27.4638 23.3264C27.9471 23.5767 28.4312 23.8254 28.9161 24.0724C30.9119 25.0919 32.6354 25.9724 33.7827 26.9032C33.923 27.0171 34.0351 27.1618 34.1103 27.3261C34.6131 28.4257 34.6575 29.6553 34.2356 30.7883C33.8136 31.9212 32.9755 32.8221 31.8761 33.3248C31.2755 33.5995 30.6366 33.7374 29.9958 33.7374ZM29.391 26.9558C28.7712 27.2003 28.2859 27.6888 28.0235 28.3337C27.7757 28.9428 27.7706 29.5924 28.0101 30.1156C28.1285 30.3765 28.2975 30.6114 28.5073 30.8065C28.7171 31.0017 28.9634 31.1533 29.2322 31.2526C29.5004 31.3532 29.7859 31.3997 30.0722 31.3894C30.3585 31.379 30.6399 31.312 30.9001 31.1922C31.161 31.0738 31.3959 30.9048 31.591 30.695C31.7862 30.4852 31.9378 30.2388 32.0371 29.97C32.2091 29.5121 32.2209 29.0094 32.0707 28.5439C31.399 28.0449 30.4708 27.5223 29.391 26.9558ZM47.2099 32.9392C46.569 32.9392 45.9301 32.8012 45.33 32.5267C44.2306 32.0239 43.3926 31.123 42.9704 29.9901C42.5486 28.8572 42.593 27.6276 43.0958 26.528C43.1785 26.3473 43.3057 26.1906 43.4654 26.0724C44.698 25.1619 46.326 24.2153 48.3036 23.2591C51.2718 21.824 51.4691 21.7083 53.8827 20.2924L54.2494 20.0774C54.808 19.7496 55.5266 19.9371 55.8543 20.4958C56.182 21.0545 55.9945 21.7732 55.4358 22.1007L55.0695 22.3155C52.929 23.5712 52.4718 23.8393 50.3236 24.886C50.7547 25.2968 51.1007 25.7883 51.342 26.3327C51.8967 27.5803 51.8916 29.0606 51.3284 30.2924C50.8256 31.3918 49.9247 32.2299 48.7919 32.6519C48.2859 32.8414 47.7502 32.9387 47.2099 32.9392ZM45.1288 27.7643C44.9847 28.2247 44.9987 28.72 45.1684 29.1716C45.2677 29.4404 45.4193 29.6868 45.6145 29.8966C45.8097 30.1064 46.0445 30.2754 46.3054 30.3938C46.5656 30.5136 46.847 30.5806 47.1333 30.5909C47.4196 30.6013 47.7051 30.5548 47.9733 30.4542C48.2421 30.3549 48.4885 30.2033 48.6983 30.0081C48.9081 29.813 49.0771 29.5781 49.1956 29.3172C49.479 28.6972 49.4803 27.9188 49.1988 27.2858C49.0244 26.8933 48.6614 26.3821 47.9139 26.0839C46.8298 26.6586 45.8976 27.221 45.1288 27.7643Z" fill="#7C152E"/>
<path d="M55.1316 13.6107C52.0287 8.8623 47.6719 5.10152 42.532 2.73527C41.9433 2.46457 41.2472 2.7218 40.9764 3.31008C40.7055 3.89848 40.9629 4.59504 41.5512 4.86574C46.29 7.04719 50.307 10.5149 53.1683 14.8937C56.1034 19.3857 57.6547 24.6094 57.6547 30C57.6547 45.2489 45.2489 57.6544 30.0002 57.6544C14.7516 57.6544 2.34551 45.2489 2.34551 30.0001C2.34551 14.7513 14.7511 2.34551 30 2.34551C30.6478 2.34551 31.1727 1.82063 31.1727 1.17281C31.1727 0.525 30.6478 0 30 0C13.4578 0 0 13.458 0 30.0001C0 46.5422 13.4578 60 30 60C46.5422 60 60 46.5422 60 30.0001C60 24.1525 58.3166 18.4852 55.1316 13.6107Z" fill="black"/>
<path d="M29.7626 45.8157C29.4295 46.3713 29.6098 47.0915 30.1654 47.4245C30.7205 47.7572 31.441 47.5771 31.7742 47.0218C33.3286 44.4291 36.0744 42.8184 38.9398 42.8184C41.8813 42.8184 44.5988 44.4167 46.032 46.9894C46.1068 47.1241 46.2075 47.2426 46.3282 47.3383C46.4489 47.434 46.5873 47.505 46.7355 47.5472C46.8836 47.5893 47.0387 47.6019 47.1917 47.5841C47.3447 47.5663 47.4927 47.5185 47.6272 47.4434C48.1931 47.1282 48.3962 46.414 48.081 45.8484C46.2341 42.5328 42.7314 40.4732 38.9398 40.4732C35.2551 40.4729 31.7386 42.5201 29.7626 45.8157ZM27.4638 23.3266C26.7196 22.9401 26.1312 22.5927 25.508 22.225C24.7399 21.7717 23.9458 21.3027 22.7967 20.7209C22.219 20.428 21.5133 20.6591 21.2206 21.2372C20.9278 21.815 21.1592 22.5207 21.7369 22.8133C22.8184 23.3611 23.5797 23.8104 24.3157 24.2448C24.9382 24.6125 25.5822 24.9924 26.3829 25.4082C26.5986 25.5203 26.8117 25.63 27.0215 25.7378C26.5137 26.2183 26.1147 26.802 25.8513 27.4496C25.3608 28.655 25.3702 29.9822 25.8772 31.0912C26.38 32.1906 27.2808 33.0285 28.4138 33.4505C28.9198 33.6399 29.4556 33.7371 29.9959 33.7376C30.6368 33.7376 31.2757 33.5997 31.8758 33.3251C32.9753 32.8224 33.8134 31.9214 34.2354 30.7886C34.6573 29.6556 34.6129 28.4261 34.11 27.3264C34.035 27.162 33.9229 27.0173 33.7825 26.9035C32.6352 25.9727 30.9116 25.092 28.9159 24.0727C28.4496 23.8342 27.9645 23.5864 27.4638 23.3266ZM32.0712 28.5439C32.2215 29.0094 32.2097 29.512 32.0376 29.9699C31.9382 30.2387 31.7866 30.4851 31.5915 30.6949C31.3963 30.9047 31.1615 31.0737 30.9006 31.1922C30.6404 31.312 30.359 31.3789 30.0727 31.3893C29.7864 31.3997 29.5009 31.3532 29.2327 31.2525C28.9639 31.1532 28.7175 31.0016 28.5077 30.8065C28.2979 30.6113 28.1289 30.3765 28.0105 30.1156C27.7711 29.5922 27.776 28.9427 28.024 28.3336C28.2864 27.689 28.7715 27.2002 29.3915 26.9557C30.471 27.5225 31.3992 28.0451 32.0712 28.5439ZM55.4361 22.1011C55.9948 21.7736 56.1822 21.055 55.8546 20.4963C55.5271 19.9374 54.8085 19.7502 54.2497 20.0778L53.8831 20.2928C51.4695 21.7087 51.2722 21.8245 48.304 23.2595C46.3263 24.2157 44.6983 25.1623 43.4658 26.0729C43.306 26.1909 43.1788 26.3476 43.0962 26.5284C42.5933 27.6279 42.5489 28.8576 42.9708 29.9906C43.3928 31.1234 44.2309 32.0243 45.3304 32.5271C45.9306 32.8016 46.5695 32.9396 47.2103 32.9396C47.7434 32.9396 48.2778 32.8442 48.7924 32.6525C49.9253 32.2305 50.8262 31.3923 51.329 30.2929C51.8922 29.0613 51.8973 27.5809 51.3426 26.3332C51.1014 25.7888 50.7554 25.2972 50.3242 24.8866C52.4721 23.8398 52.9294 23.5717 55.0701 22.3161L55.4361 22.1011ZM49.1959 29.3173C49.0775 29.5782 48.9085 29.813 48.6987 30.0082C48.4889 30.2034 48.2424 30.355 47.9736 30.4543C47.7054 30.5548 47.4199 30.6013 47.1336 30.5909C46.8474 30.5806 46.566 30.5136 46.3057 30.3939C46.0448 30.2755 45.81 30.1065 45.6148 29.8967C45.4197 29.6869 45.2681 29.4404 45.1688 29.1716C44.9991 28.7201 44.9851 28.2247 45.1292 27.7643C45.8978 27.2209 46.8301 26.6588 47.9145 26.084C48.662 26.3819 49.0249 26.8933 49.1994 27.2859C49.4807 27.919 49.4793 28.6975 49.1959 29.3173Z" fill="black"/>
<path d="M36.6934 2.34555C36.6934 2.49955 36.7237 2.65204 36.7826 2.79432C36.8416 2.9366 36.9279 3.06587 37.0368 3.17477C37.1457 3.28366 37.275 3.37004 37.4173 3.42898C37.5596 3.48791 37.7121 3.51824 37.8661 3.51824C38.0201 3.51824 38.1725 3.48791 38.3148 3.42898C38.4571 3.37004 38.5864 3.28366 38.6953 3.17477C38.8042 3.06587 38.8905 2.9366 38.9495 2.79432C39.0084 2.65204 39.0388 2.49955 39.0388 2.34555C39.0388 2.19155 39.0084 2.03905 38.9495 1.89678C38.8905 1.7545 38.8042 1.62522 38.6953 1.51633C38.5864 1.40743 38.4571 1.32105 38.3148 1.26212C38.1725 1.20318 38.0201 1.17285 37.8661 1.17285C37.7121 1.17285 37.5596 1.20318 37.4173 1.26212C37.275 1.32105 37.1457 1.40743 37.0368 1.51633C36.9279 1.62522 36.8416 1.7545 36.7826 1.89678C36.7237 2.03905 36.6934 2.19155 36.6934 2.34555Z" fill="black"/>
</g>
<defs>
<clipPath id="clip0_135_358">
<rect width="60" height="60" fill="white"/>
</clipPath>
</defs>
</svg>
