<svg width="61" height="61" viewBox="0 0 61 61" fill="none" xmlns="http://www.w3.org/2000/svg">
<path d="M31.0451 57.4868C43.3022 57.4868 53.2386 45.3403 53.2386 30.3569C53.2386 15.3735 43.3022 3.22705 31.0451 3.22705C18.7879 3.22705 8.85156 15.3735 8.85156 30.3569C8.85156 45.3403 18.7879 57.4868 31.0451 57.4868Z" fill="#F1C27D"/>
<path d="M16.0108 29.1502C17.5636 28.9831 19.1332 29.0649 20.6603 29.3924C22.1964 29.7777 23.5996 30.5715 24.7212 31.6896C24.7381 31.7073 24.7475 31.7309 24.7475 31.7554C24.7475 31.78 24.7381 31.8035 24.7212 31.8213C24.7135 31.8293 24.7042 31.8357 24.694 31.8401C24.6838 31.8445 24.6728 31.8468 24.6617 31.8468H24.566C23.7308 31.8894 22.8938 31.8894 22.0585 31.8468C21.4106 31.8233 20.7665 31.7364 20.1354 31.5876C19.4734 31.4174 18.8321 31.1751 18.2229 30.8651C17.4292 30.4764 16.6956 29.9754 16.0448 29.3776L15.9704 29.3117C15.9543 29.2944 15.9453 29.2716 15.9453 29.2479C15.9453 29.2243 15.9543 29.2015 15.9704 29.1842C15.9804 29.1693 15.9944 29.1575 16.0108 29.1502Z" fill="#EDEDED"/>
<path d="M16.028 25.7329C17.9417 25.7379 19.8497 25.943 21.7208 26.3449C22.6852 26.4911 23.623 26.7775 24.5046 27.1949C25.4069 27.6457 26.1798 28.3184 26.7507 29.1499C26.7588 29.1635 26.7613 29.1797 26.7577 29.1952C26.7542 29.2106 26.7448 29.2241 26.7316 29.2328C26.7232 29.2365 26.7142 29.2384 26.705 29.2384C26.6959 29.2384 26.6868 29.2365 26.6785 29.2328L21.4956 27.2077C19.7078 26.6214 17.8807 26.1627 16.028 25.8349C16.0207 25.8339 16.0137 25.8314 16.0073 25.8276C16.001 25.8238 15.9955 25.8188 15.9912 25.8129C15.9868 25.8069 15.9837 25.8002 15.982 25.793C15.9803 25.7859 15.98 25.7784 15.9812 25.7712C15.9851 25.7613 15.9914 25.7526 15.9996 25.7459C16.0078 25.7392 16.0175 25.7347 16.028 25.7329Z" fill="#1E1E1E"/>
<path d="M45.1064 29.3624C44.4563 29.9602 43.7235 30.4612 42.9304 30.8499C42.321 31.1592 41.6797 31.4015 41.0179 31.5724C40.3861 31.7212 39.7413 31.808 39.0927 31.8317C38.2574 31.8743 37.4205 31.8743 36.5852 31.8317H36.4896C36.4776 31.8311 36.4658 31.8282 36.4549 31.8231C36.444 31.818 36.4343 31.8108 36.4262 31.8019C36.4181 31.7931 36.4118 31.7827 36.4077 31.7714C36.4037 31.76 36.4019 31.748 36.4024 31.736C36.4041 31.7133 36.4131 31.6917 36.4279 31.6744C37.55 30.5558 38.954 29.762 40.4909 29.3773C42.016 29.0553 43.5827 28.9786 45.1319 29.1499C45.1437 29.1512 45.1551 29.1549 45.1654 29.1606C45.1757 29.1664 45.1848 29.1741 45.1922 29.1834C45.1995 29.1927 45.2049 29.2034 45.208 29.2148C45.2112 29.2262 45.2121 29.2381 45.2106 29.2498C45.2086 29.2721 45.1979 29.2927 45.1808 29.3072L45.1064 29.3624Z" fill="#EDEDED"/>
<path d="M45.1231 25.8458C43.2705 26.1739 41.4434 26.6326 39.6555 27.2186L34.4726 29.2437C34.4582 29.2494 34.4422 29.2492 34.4279 29.2433C34.4136 29.2373 34.4022 29.226 34.3961 29.2118C34.3888 29.1941 34.3888 29.1743 34.3961 29.1566C34.9653 28.3273 35.7351 27.6555 36.6337 27.2037C37.516 26.7863 38.4546 26.4999 39.4196 26.3537C41.29 25.9517 43.1973 25.7466 45.1104 25.7417C45.1178 25.7417 45.1252 25.7432 45.132 25.7461C45.1389 25.749 45.145 25.7533 45.1502 25.7586C45.1554 25.764 45.1594 25.7703 45.162 25.7773C45.1647 25.7842 45.1659 25.7916 45.1656 25.7991C45.1639 25.8102 45.1589 25.8205 45.1514 25.8288C45.1438 25.8371 45.134 25.843 45.1231 25.8458Z" fill="#1E1E1E"/>
<path d="M8.85331 30.3571C8.43334 29.06 8.11226 27.7331 7.89281 26.3876C7.42638 24.4032 7.54147 22.3264 8.22431 20.4057C8.86181 19.0414 10.0391 18.1001 10.6128 16.6317C11.8389 13.4952 11.4203 9.8083 13.4476 6.98205C14.6472 5.09261 16.2991 3.5322 18.2538 2.44207C20.2084 1.35194 22.4041 0.766517 24.6421 0.738804C31.7842 1.21055 40.4032 -2.71007 45.9431 5.91318C51.4829 14.5364 51.0877 12.5007 52.9024 18.7694C54.7172 25.0382 54.4091 28.2767 54.2539 28.7739C53.9783 29.3395 53.6374 29.8708 53.2382 30.3571C53.2382 30.3571 51.6381 25.1976 43.7883 24.7279C41.747 24.6589 39.7367 24.2077 37.8617 23.3977C35.1523 22.1099 33.3078 20.8477 30.2117 21.2557C28.1101 21.5362 26.0042 21.8082 23.9089 22.1418C20.8489 22.6306 14.6503 23.1108 13.0056 26.3918C11.1653 30.0511 8.85969 30.3549 8.85331 30.3571Z" fill="#400000"/>
<path d="M13.0078 26.3877C12.5444 27.7808 12.3602 29.2517 12.466 30.7161C12.5717 32.1805 12.9653 33.6096 13.6241 34.9217C15.7788 40.2533 29.0133 33.5107 29.7847 33.5107C30.5561 33.5107 32.7087 32.4482 37.7874 35.5613C42.8662 38.6745 49.1753 31.6811 49.1753 31.6811C49.1753 31.6811 49.9084 26.2857 48.5378 25.7948C47.1672 25.304 53.2362 27.4948 53.2362 27.4948C53.5114 31.6893 53.5114 35.8973 53.2362 40.0918C52.7134 43.8552 47.3266 50.753 47.3266 52.3212C47.3266 53.8895 36.3531 60.4663 31.0661 59.6865C25.7791 58.9066 17.6233 58.1203 13.9301 52.164C10.2368 46.2076 7.46581 34.4181 8.85131 30.3572C10.2368 26.2963 13.0078 26.3877 13.0078 26.3877Z" fill="#400000"/>
<path d="M60.1133 5.12045H60.0793C58.0196 5.81942 55.9225 6.40258 53.7978 6.8672C52.8662 7.05215 51.9165 7.12987 50.9673 7.09882C50.566 7.06143 50.1687 6.99034 49.7794 6.88632C49.5998 6.84408 49.4273 6.77608 49.2673 6.68445L48.5256 6.3487C47.3913 5.88145 46.1738 5.65009 44.9471 5.6687C45.0916 5.5667 45.217 5.4392 45.3721 5.34782C46.2703 4.80132 47.3279 4.57721 48.3705 4.71245C49.5051 4.82489 50.6457 4.56935 51.6239 3.98357C52.5811 3.41452 53.4177 2.66376 54.0868 1.77357C54.0959 1.76205 54.102 1.74846 54.1046 1.734C54.1072 1.71954 54.1062 1.70467 54.1016 1.6907C54.0947 1.66713 54.0788 1.64723 54.0573 1.6353C54.0359 1.62337 54.0105 1.62037 53.9869 1.62695L53.9146 1.6482C52.6779 2.01795 51.6813 2.33457 50.8143 2.52157C50.1075 2.67777 49.3787 2.70727 48.6616 2.6087C47.8824 2.52888 47.095 2.60105 46.3433 2.8212C45.6547 3.06114 45.0221 3.43853 44.4839 3.93045C43.9159 4.46071 43.4725 5.11024 43.1855 5.83232C42.4203 5.96175 41.6648 6.14351 40.9245 6.37632C38.689 7.09168 36.6307 8.27296 34.8853 9.8422L34.8661 9.8592C34.8495 9.87543 34.839 9.89697 34.8365 9.9201C34.834 9.94323 34.8397 9.9665 34.8525 9.9859C34.8654 10.0053 34.8846 10.0196 34.9069 10.0263C34.9291 10.0331 34.9531 10.0318 34.9745 10.0228C36.9824 9.09585 39.088 8.39731 41.2518 7.94032C43.374 7.37484 45.6179 7.46747 47.6863 8.20595C48.7014 8.72645 49.8243 9.00225 50.9651 9.01132C52.0926 8.96298 53.2074 8.75404 54.2759 8.39082C56.3882 7.65215 58.3807 6.60757 60.1898 5.29045C60.2063 5.2779 60.2186 5.2606 60.2251 5.24085C60.2316 5.2211 60.2318 5.19986 60.2259 5.17995C60.2173 5.15821 60.2013 5.14025 60.1806 5.12934C60.1599 5.11842 60.136 5.11527 60.1133 5.12045Z" fill="#400000"/>
</svg>
