<svg width="61" height="61" viewBox="0 0 61 61" fill="none" xmlns="http://www.w3.org/2000/svg">
<g clip-path="url(#clip0_135_338)">
<path d="M59.5648 30.2433C59.5648 46.1642 46.6584 59.0706 30.7375 59.0706C14.8165 59.0706 1.91016 46.1642 1.91016 30.2433C1.91016 14.3225 14.8166 1.41602 30.7375 1.41602C34.5709 1.41602 38.2297 2.16426 41.5755 3.5227C52.1254 7.80602 59.5648 18.156 59.5648 30.2433Z" fill="#FDDF6D"/>
<path d="M36.915 54.8147C20.9941 54.8147 8.0877 41.9083 8.0877 25.9873C8.0877 17.4814 11.7724 9.83703 17.6319 4.56055C8.29922 9.3323 1.91016 19.0415 1.91016 30.243C1.91016 46.1639 14.8165 59.0703 30.7375 59.0703C38.1524 59.0703 44.9127 56.2698 50.0205 51.67C46.0886 53.6804 41.6344 54.8147 36.915 54.8147Z" fill="#FCC56B"/>
<path d="M29.6003 22.4924C28.9526 22.4924 28.4276 21.9673 28.4276 21.3197C28.4276 19.8071 27.197 18.5765 25.6843 18.5765C24.1717 18.5765 22.9411 19.8072 22.9411 21.3197C22.9411 21.9674 22.416 22.4924 21.7684 22.4924C21.1207 22.4924 20.5957 21.9673 20.5957 21.3197C20.5957 18.5138 22.8786 16.231 25.6845 16.231C28.4903 16.231 30.7732 18.5138 30.7732 21.3197C30.7731 21.9673 30.248 22.4924 29.6003 22.4924ZM49.4077 22.4924C48.76 22.4924 48.235 21.9673 48.235 21.3197C48.235 19.8071 47.0044 18.5765 45.4917 18.5765C43.9791 18.5765 42.7485 19.8072 42.7485 21.3197C42.7485 21.9674 42.2234 22.4924 41.5758 22.4924C40.9282 22.4924 40.4031 21.9673 40.4031 21.3197C40.4031 18.5138 42.686 16.231 45.4918 16.231C48.2977 16.231 50.5806 18.5138 50.5806 21.3197C50.5804 21.9673 50.0553 22.4924 49.4077 22.4924Z" fill="#7F184C"/>
<path d="M34.9325 51.3094C26.5991 51.3094 19.8438 44.554 19.8438 36.2207H50.0212C50.0212 44.5539 43.2657 51.3094 34.9325 51.3094Z" fill="white"/>
<path d="M18.3509 28.4585C16.2102 28.4585 14.4746 30.194 14.4746 32.3348H22.2274C22.2271 30.194 20.4917 28.4585 18.3509 28.4585ZM52.1626 28.4585C50.0218 28.4585 48.2861 30.194 48.2861 32.3348H56.0389C56.039 30.194 54.3036 28.4585 52.1626 28.4585Z" fill="#F9A880"/>
<path d="M21.3281 42.7529C21.7243 43.5757 22.1944 44.3607 22.7326 45.0984H47.1343C47.6726 44.3607 48.1426 43.5757 48.5388 42.7529H21.3281Z" fill="#E6E6E6"/>
<path d="M55.5673 13.4002C52.266 8.5425 47.6644 4.7857 42.2605 2.53605C41.6631 2.28715 40.9761 2.57004 40.7272 3.16793C40.4783 3.76582 40.7612 4.45242 41.3591 4.70145C51.7066 9.00926 58.3927 19.0351 58.3927 30.2433C58.3927 45.4922 45.987 57.8978 30.7382 57.8978C15.4894 57.8978 3.08379 45.4918 3.08379 30.2432C3.08379 14.9945 15.4894 2.58867 30.7383 2.58867C31.386 2.58867 31.911 2.06355 31.911 1.41598C31.911 0.768398 31.386 0.243164 30.7383 0.243164C14.1961 0.243164 0.738281 13.701 0.738281 30.2432C0.738281 46.7854 14.1961 60.2432 30.7383 60.2432C47.2805 60.2432 60.7383 46.7854 60.7383 30.2432C60.7383 24.2018 58.9502 18.3777 55.5673 13.4002Z" fill="black"/>
<path d="M22.9423 21.3197C22.9423 19.8071 24.173 18.5765 25.6855 18.5765C27.1981 18.5765 28.4288 19.8071 28.4288 21.3197C28.4288 21.9674 28.9539 22.4924 29.6015 22.4924C30.2492 22.4924 30.7742 21.9673 30.7742 21.3197C30.7742 18.5138 28.4914 16.231 25.6854 16.231C22.8795 16.231 20.5967 18.5138 20.5967 21.3197C20.5967 21.9674 21.1218 22.4924 21.7694 22.4924C22.4173 22.4924 22.9423 21.9675 22.9423 21.3197ZM45.4929 16.2311C42.687 16.2311 40.4042 18.5139 40.4042 21.3198C40.4042 21.9675 40.9293 22.4925 41.5769 22.4925C42.2245 22.4925 42.7496 21.9674 42.7496 21.3198C42.7496 19.8072 43.9803 18.5766 45.4928 18.5766C47.0053 18.5766 48.2361 19.8072 48.2361 21.3198C48.2361 21.9675 48.7612 22.4925 49.4088 22.4925C50.0563 22.4925 50.5814 21.9674 50.5814 21.3198C50.5817 18.5139 48.299 16.2311 45.4929 16.2311ZM18.6719 36.2206C18.6719 45.1872 25.9668 52.4821 34.9334 52.4821C43.9 52.4821 51.1949 45.1872 51.1949 36.2206C51.1949 35.5729 50.6698 35.0479 50.0222 35.0479H19.8446C19.197 35.0479 18.6719 35.573 18.6719 36.2206ZM48.8004 37.3934C48.2031 44.5201 42.2118 50.1367 34.9334 50.1367C27.655 50.1367 21.6637 44.5203 21.0664 37.3934H48.8004Z" fill="black"/>
<path d="M36.5547 2.29477C36.5547 2.60578 36.6782 2.90406 36.8982 3.12399C37.1181 3.34391 37.4164 3.46746 37.7274 3.46746C38.0384 3.46746 38.3367 3.34391 38.5566 3.12399C38.7765 2.90406 38.9001 2.60578 38.9001 2.29477C38.9001 1.98375 38.7765 1.68547 38.5566 1.46554C38.3367 1.24562 38.0384 1.12207 37.7274 1.12207C37.4164 1.12207 37.1181 1.24562 36.8982 1.46554C36.6782 1.68547 36.5547 1.98375 36.5547 2.29477Z" fill="black"/>
</g>
<defs>
<clipPath id="clip0_135_338">
<rect width="60" height="60" fill="white" transform="translate(0.738281 0.243164)"/>
</clipPath>
</defs>
</svg>
