<svg width="60" height="60" viewBox="0 0 60 60" fill="none" xmlns="http://www.w3.org/2000/svg">
<g clip-path="url(#clip0_135_348)">
<path d="M1.17188 30.0002C1.17188 37.6457 4.20903 44.9781 9.61521 50.3842C15.0214 55.7904 22.3537 58.8276 29.9992 58.8276C37.6447 58.8276 44.9771 55.7904 50.3833 50.3842C55.7894 44.9781 58.8266 37.6457 58.8266 30.0002C58.8266 22.3547 55.7894 15.0224 50.3833 9.61619C44.9771 4.21001 37.6447 1.17285 29.9992 1.17285C22.3537 1.17285 15.0214 4.21001 9.61521 9.61619C4.20903 15.0224 1.17188 22.3547 1.17188 30.0002Z" fill="#FDDF6D"/>
<path d="M23 51H38" stroke="black" stroke-width="3"/>
<path d="M16.4609 26.0763C16.4609 27.0094 16.8316 27.9043 17.4914 28.5641C18.1512 29.2239 19.0461 29.5945 19.9791 29.5945C20.9122 29.5945 21.8071 29.2239 22.4669 28.5641C23.1267 27.9043 23.4974 27.0094 23.4974 26.0763C23.4974 25.1432 23.1267 24.2484 22.4669 23.5886C21.8071 22.9288 20.9122 22.5581 19.9791 22.5581C19.0461 22.5581 18.1512 22.9288 17.4914 23.5886C16.8316 24.2484 16.4609 25.1432 16.4609 26.0763Z" fill="white"/>
<path d="M35.2695 27.0763C35.2695 28.0094 35.6402 28.9043 36.3 29.5641C36.9598 30.2239 37.8547 30.5945 38.7877 30.5945C39.7208 30.5945 40.6157 30.2239 41.2755 29.5641C41.9353 28.9043 42.306 28.0094 42.306 27.0763C42.306 26.1432 41.9353 25.2484 41.2755 24.5886C40.6157 23.9288 39.7208 23.5581 38.7877 23.5581C37.8547 23.5581 36.9598 23.9288 36.3 24.5886C35.6402 25.2484 35.2695 26.1432 35.2695 27.0763Z" fill="white"/>
<path d="M10.5699 28.4727C8.04616 28.4727 6 30.0518 6 32H15.1396C15.1398 30.0518 13.0937 28.4727 10.5699 28.4727ZM50.4304 28C47.9066 28 45.8604 29.5791 45.8604 31.5272H55C55.0001 29.5793 52.9543 28 50.4304 28Z" fill="#F9A880"/>
<path d="M43.9732 3.44626C43.3998 3.14403 42.6908 3.36387 42.3889 3.93657C42.0867 4.5095 42.3063 5.21872 42.8792 5.52083C51.9929 10.3262 57.6546 19.7061 57.6546 29.9999C57.6546 45.2488 45.2488 57.6545 30.0001 57.6545C14.7514 57.6545 2.34551 45.2489 2.34551 29.9999C2.34551 14.751 14.7512 2.34551 29.9999 2.34551C30.6478 2.34551 31.1726 1.82039 31.1726 1.17281C31.1726 0.525235 30.6478 0 29.9999 0C13.4578 0 0 13.458 0 29.9999C0 46.5419 13.4578 59.9999 29.9999 59.9999C46.542 59.9999 59.9999 46.542 59.9999 29.9999C60.0001 18.8335 53.8589 8.65865 43.9732 3.44626Z" fill="black"/>
<path d="M24.6709 27.0771C24.6709 24.4906 22.5665 22.3862 19.98 22.3862C17.3934 22.3862 15.2891 24.4906 15.2891 27.0771C15.2891 29.6637 17.3934 31.768 19.98 31.768C22.5665 31.768 24.6709 29.6637 24.6709 27.0771ZM19.98 29.4225C18.6867 29.4225 17.6345 28.3703 17.6345 27.077C17.6345 25.7837 18.6867 24.7315 19.98 24.7315C21.2733 24.7315 22.3255 25.7837 22.3255 27.077C22.3255 28.3703 21.2733 29.4225 19.98 29.4225ZM39.7873 31.768C42.3738 31.768 44.4782 29.6637 44.4782 27.0771C44.4782 24.4906 42.3738 22.3862 39.7873 22.3862C37.2007 22.3862 35.0964 24.4906 35.0964 27.0771C35.0964 29.6637 37.2007 31.768 39.7873 31.768ZM39.7873 24.7316C41.0806 24.7316 42.1328 25.7839 42.1328 27.0771C42.1328 28.3704 41.0806 29.4226 39.7873 29.4226C38.494 29.4226 37.4418 28.3704 37.4418 27.0771C37.4418 25.7839 38.4939 24.7316 39.7873 24.7316Z" fill="black"/>
<path d="M37.8379 2.74301C37.8379 3.05403 37.9614 3.35231 38.1814 3.57223C38.4013 3.79216 38.6996 3.91571 39.0106 3.91571C39.3216 3.91571 39.6199 3.79216 39.8398 3.57223C40.0597 3.35231 40.1833 3.05403 40.1833 2.74301C40.1833 2.43199 40.0597 2.13371 39.8398 1.91379C39.6199 1.69386 39.3216 1.57031 39.0106 1.57031C38.6996 1.57031 38.4013 1.69386 38.1814 1.91379C37.9614 2.13371 37.8379 2.43199 37.8379 2.74301Z" fill="black"/>
</g>
<defs>
<clipPath id="clip0_135_348">
<rect width="60" height="60" fill="white"/>
</clipPath>
</defs>
</svg>
