<svg width="60" height="60" viewBox="0 0 60 60" fill="none" xmlns="http://www.w3.org/2000/svg">
<g clip-path="url(#clip0_135_348)">
<path d="M1.17188 30.0002C1.17188 37.6457 4.20903 44.9781 9.61521 50.3842C15.0214 55.7904 22.3537 58.8276 29.9992 58.8276C37.6447 58.8276 44.9771 55.7904 50.3833 50.3842C55.7894 44.9781 58.8266 37.6457 58.8266 30.0002C58.8266 22.3547 55.7894 15.0224 50.3833 9.61619C44.9771 4.21001 37.6447 1.17285 29.9992 1.17285C22.3537 1.17285 15.0214 4.21001 9.61521 9.61619C4.20903 15.0224 1.17188 22.3547 1.17188 30.0002Z" fill="#FDDF6D"/>
<path d="M36.1768 54.5715C20.2559 54.5715 7.34954 41.6651 7.34954 25.7442C7.34954 17.2383 11.0343 9.59388 16.8938 4.31738C7.56095 9.08915 1.17188 18.7983 1.17188 29.9998C1.17188 45.9207 14.0782 58.827 29.9991 58.827C37.4141 58.827 44.1744 56.0266 49.2821 51.4267C45.3505 53.4372 40.8961 54.5715 36.1768 54.5715Z" fill="#FCC56B"/>
<path d="M21.4609 21.0763C21.4609 22.0094 21.8316 22.9043 22.4914 23.5641C23.1512 24.2239 24.0461 24.5945 24.9791 24.5945C25.9122 24.5945 26.8071 24.2239 27.4669 23.5641C28.1267 22.9043 28.4974 22.0094 28.4974 21.0763C28.4974 20.1432 28.1267 19.2484 27.4669 18.5886C26.8071 17.9288 25.9122 17.5581 24.9791 17.5581C24.0461 17.5581 23.1512 17.9288 22.4914 18.5886C21.8316 19.2484 21.4609 20.1432 21.4609 21.0763Z" fill="white"/>
<path d="M41.2695 21.0763C41.2695 22.0094 41.6402 22.9043 42.3 23.5641C42.9598 24.2239 43.8547 24.5945 44.7877 24.5945C45.7208 24.5945 46.6157 24.2239 47.2755 23.5641C47.9353 22.9043 48.306 22.0094 48.306 21.0763C48.306 20.1432 47.9353 19.2484 47.2755 18.5886C46.6157 17.9288 45.7208 17.5581 44.7877 17.5581C43.8547 17.5581 42.9598 17.9288 42.3 18.5886C41.6402 19.2484 41.2695 20.1432 41.2695 21.0763Z" fill="white"/>
<path d="M17.6108 28.2153C15.47 28.2153 13.7344 29.9507 13.7344 32.0917H21.487C21.4873 29.9507 19.7516 28.2153 17.6108 28.2153ZM51.4227 27.6958C49.2819 27.6958 47.5462 29.4312 47.5462 31.5721H55.2989C55.299 29.4315 53.5636 27.6958 51.4227 27.6958Z" fill="#F9A880"/>
<path d="M41.9032 45.7164C41.6941 45.7166 41.4887 45.6608 41.3084 45.5549C41.128 45.449 40.9793 45.2968 40.8776 45.1141C39.7782 43.1404 37.6935 41.9145 35.4371 41.9145C33.2381 41.9145 31.1297 43.1529 29.9346 45.1464C29.6015 45.7018 28.8813 45.8822 28.3258 45.5492C27.7702 45.2161 27.5899 44.4958 27.923 43.9403C29.5396 41.2439 32.4189 39.5688 35.4373 39.5688C38.5439 39.5688 41.4139 41.2564 42.9266 43.9728C43.2419 44.5387 43.0388 45.2528 42.4729 45.568C42.2988 45.6653 42.1027 45.7164 41.9032 45.7164Z" fill="#7F184C"/>
<path d="M43.9732 3.44626C43.3998 3.14403 42.6908 3.36387 42.3889 3.93657C42.0867 4.5095 42.3063 5.21872 42.8792 5.52083C51.9929 10.3262 57.6546 19.7061 57.6546 29.9999C57.6546 45.2488 45.2488 57.6545 30.0001 57.6545C14.7514 57.6545 2.34551 45.2489 2.34551 29.9999C2.34551 14.751 14.7512 2.34551 29.9999 2.34551C30.6478 2.34551 31.1726 1.82039 31.1726 1.17281C31.1726 0.525235 30.6478 0 29.9999 0C13.4578 0 0 13.458 0 29.9999C0 46.5419 13.4578 59.9999 29.9999 59.9999C46.542 59.9999 59.9999 46.542 59.9999 29.9999C60.0001 18.8335 53.8589 8.65865 43.9732 3.44626Z" fill="black"/>
<path d="M29.6709 21.0771C29.6709 18.4906 27.5665 16.3862 24.98 16.3862C22.3934 16.3862 20.2891 18.4906 20.2891 21.0771C20.2891 23.6637 22.3934 25.768 24.98 25.768C27.5665 25.768 29.6709 23.6637 29.6709 21.0771ZM24.98 23.4225C23.6867 23.4225 22.6345 22.3703 22.6345 21.077C22.6345 19.7837 23.6867 18.7315 24.98 18.7315C26.2733 18.7315 27.3255 19.7837 27.3255 21.077C27.3255 22.3703 26.2733 23.4225 24.98 23.4225ZM44.7873 25.768C47.3738 25.768 49.4782 23.6637 49.4782 21.0771C49.4782 18.4906 47.3738 16.3862 44.7873 16.3862C42.2007 16.3862 40.0964 18.4906 40.0964 21.0771C40.0964 23.6637 42.2007 25.768 44.7873 25.768ZM44.7873 18.7316C46.0806 18.7316 47.1328 19.7839 47.1328 21.0771C47.1328 22.3704 46.0806 23.4226 44.7873 23.4226C43.494 23.4226 42.4418 22.3704 42.4418 21.0771C42.4418 19.7839 43.4939 18.7316 44.7873 18.7316ZM27.9235 43.9406C27.5904 44.4959 27.7707 45.2164 28.3263 45.5495C28.8819 45.8825 29.6019 45.702 29.9351 45.1467C31.1303 43.1531 33.2388 41.9148 35.4376 41.9148C37.694 41.9148 39.7789 43.1408 40.8781 45.1143C40.953 45.2489 41.0537 45.3674 41.1745 45.4631C41.2952 45.5587 41.4336 45.6297 41.5817 45.6718C41.7299 45.714 41.8849 45.7265 42.0379 45.7088C42.1909 45.691 42.3389 45.6433 42.4734 45.5683C43.0393 45.2531 43.2424 44.5389 42.9272 43.973C41.4141 41.2566 38.5445 39.5691 35.4378 39.5691C32.4195 39.5691 29.5402 41.2442 27.9235 43.9406Z" fill="black"/>
<path d="M37.8379 2.74301C37.8379 3.05403 37.9614 3.35231 38.1814 3.57223C38.4013 3.79216 38.6996 3.91571 39.0106 3.91571C39.3216 3.91571 39.6199 3.79216 39.8398 3.57223C40.0597 3.35231 40.1833 3.05403 40.1833 2.74301C40.1833 2.43199 40.0597 2.13371 39.8398 1.91379C39.6199 1.69386 39.3216 1.57031 39.0106 1.57031C38.6996 1.57031 38.4013 1.69386 38.1814 1.91379C37.9614 2.13371 37.8379 2.43199 37.8379 2.74301Z" fill="black"/>
</g>
<defs>
<clipPath id="clip0_135_348">
<rect width="60" height="60" fill="white"/>
</clipPath>
</defs>
</svg>
